<svg id="Layer_1" data-name="Layer 1" xmlns="http://www.w3.org/2000/svg" viewBox="0 0 37.09 37.09"><defs><style>.cls-1{fill:#f5ac9f;}.cls-2{fill:#1d1d1b;}</style></defs><circle class="cls-1" cx="18.54" cy="18.54" r="17.84"/><path class="cls-2" d="M25.11,41.48A18.55,18.55,0,1,1,43.65,22.93,18.57,18.57,0,0,1,25.11,41.48Zm0-35.68A17.13,17.13,0,1,0,42.23,22.93,17.15,17.15,0,0,0,25.11,5.8Z" transform="translate(-6.56 -4.39)"/><path d="M13.19,26.09c-1-.23-1.14-.42-.92-1.35.63-2.6,1.3-5.19,1.9-7.79.19-.85.59-1.21,1.44-1.11a2.66,2.66,0,0,0,.52,0c0-.79,0-1.56,0-2.33s.26-.94.92-.92c.83,0,1.65,0,2.48,0,.66,0,.95.27.94.92s0,1.53,0,2.38h1c4.41,0,8.83,0,13.24,0a1.15,1.15,0,0,1,1.34,1c.61,2.63,1.28,5.24,1.92,7.86.22.92.08,1.13-.91,1.36v6c0,1.14-.08,1.22-1.24,1.22H14.42c-1.15,0-1.23-.08-1.23-1.23C13.18,30.1,13.19,28.11,13.19,26.09Zm12-7.89c-1.07,1.26-2.11,2.43-3.1,3.64a1.76,1.76,0,0,0-.36,1c0,2.79,0,5.57,0,8.35,0,.23,0,.45,0,.69h6.75a1.16,1.16,0,0,0,.06-.26c0-3,0-6,0-9a.84.84,0,0,0-.14-.5C27.34,20.82,26.27,19.54,25.15,18.2ZM35.64,31.91V26.07h-5.7v5.84ZM20.29,26.07H14.56v5.82h5.73Zm-2.8-10.28h1.57V14H17.49Z" transform="translate(-6.56 -4.39)"/><path d="M23.41,28.9c0-1,0-2,0-3a1.69,1.69,0,0,1,3.36-.16c.07.8,0,1.6,0,2.4,0,.23,0,.45,0,.72Z" transform="translate(-6.56 -4.39)"/></svg>